<svg xmlns="http://www.w3.org/2000/svg" width="1200" height="630" viewBox="0 0 1200 630" role="img" aria-labelledby="title desc">
  <title id="title">Mayapada AI Initiatives</title>
  <desc id="desc">Open Graph image for Mayapada AI Initiatives with Mayapada logo mark and title.</desc>
  <defs>
    <linearGradient id="bg" x1="0" y1="0" x2="1" y2="1">
      <stop offset="0%" stop-color="#06060e"/>
      <stop offset="55%" stop-color="#111128"/>
      <stop offset="100%" stop-color="#0b1424"/>
    </linearGradient>
    <linearGradient id="gold" x1="0" y1="0" x2="1" y2="1">
      <stop offset="0%" stop-color="#f4e4a0"/>
      <stop offset="100%" stop-color="#d4af37"/>
    </linearGradient>
  </defs>

  <rect width="1200" height="630" fill="url(#bg)"/>
  <circle cx="1020" cy="90" r="240" fill="#d4af37" fill-opacity="0.08"/>
  <circle cx="160" cy="600" r="260" fill="#06b6d4" fill-opacity="0.08"/>

  <g transform="translate(90 130)">
    <rect x="0" y="0" width="150" height="150" rx="24" fill="#0c0c1a" stroke="#d4af37" stroke-opacity="0.45"/>
    <path d="M35 116V34h23l18 35 18-35h23v82h-21V66L79 98 58 66v50z" fill="url(#gold)"/>
  </g>

  <text x="280" y="215" fill="#f0ece2" font-family="Inter, Arial, sans-serif" font-size="34" letter-spacing="8">MAYAPADA</text>
  <text x="280" y="295" fill="#f0ece2" font-family="Playfair Display, Georgia, serif" font-size="78" font-weight="700">AI Initiatives</text>
  <text x="280" y="355" fill="#f4e4a0" font-family="Inter, Arial, sans-serif" font-size="28" letter-spacing="2">Cross-Sector Transformation Portfolio</text>

  <g transform="translate(280 420)" fill="#f0ece2" fill-opacity="0.88" font-family="Inter, Arial, sans-serif" font-size="24">
    <text x="0" y="0">Financial Services</text>
    <text x="260" y="0">Healthcare</text>
    <text x="430" y="0">Property</text>
    <text x="560" y="0">Hospitality</text>
    <text x="740" y="0">Retail</text>
    <text x="860" y="0">Media</text>
  </g>

  <rect x="280" y="444" width="830" height="2" fill="#d4af37" fill-opacity="0.55"/>
</svg>
